<svg xmlns="http://www.w3.org/2000/svg" width="49" height="45" viewBox="0 0 49 45">
  <g id="Group_5" data-name="Group 5" transform="translate(-797.794 -1166.632)">
    <path id="Union_3" data-name="Union 3" d="M46.934,42.94l-6.287-2.017a16.417,16.417,0,0,1-6.56,1.354c-7.723,0-14.092-5.267-14.841-11.985a19.266,19.266,0,0,1-2.2.127h-.037a18.664,18.664,0,0,1-7.459-1.546l-7.184,2.3a1.489,1.489,0,0,1-.439.069,1.458,1.458,0,0,1-1.017-.42,1.394,1.394,0,0,1-.364-1.44l1.945-6.253A13.956,13.956,0,0,1,0,15.21C0,6.823,7.645,0,17.043,0S34.087,6.823,34.087,15.21c0,.149,0,.3-.008.448h.008C42.312,15.658,49,21.629,49,28.966A12.266,12.266,0,0,1,46.824,35.9l1.7,5.471a1.23,1.23,0,0,1-.32,1.26,1.264,1.264,0,0,1-.889.368A1.291,1.291,0,0,1,46.934,42.94Zm-5.992-4.56,4.45,1.42-1.132-3.626a1.27,1.27,0,0,1,.236-1.356,9.787,9.787,0,0,0,1.978-5.852c0-5.955-5.561-10.8-12.386-10.8S21.7,23.011,21.7,28.966s5.561,10.8,12.386,10.8a13.866,13.866,0,0,0,5.793-1.252,1.273,1.273,0,0,1,1.062-.134ZM2.888,15.21a11.271,11.271,0,0,0,2.259,6.685,1.456,1.456,0,0,1,.27,1.556L4.125,27.589,9.21,25.966a1.439,1.439,0,0,1,1.215.153A15.923,15.923,0,0,0,17,27.55h.045a16.186,16.186,0,0,0,2.235-.154c.76-5.738,5.626-10.37,11.9-11.483.016-.234.023-.469.023-.7,0-6.8-6.349-12.339-14.155-12.339S2.888,8.405,2.888,15.21Zm12.506,6.422a1.323,1.323,0,1,1,1.322,1.315A1.318,1.318,0,0,1,15.394,21.632Zm.216-3.412a3.828,3.828,0,0,1,2.716-3.668,1.642,1.642,0,0,0,1.17-1.578,2.453,2.453,0,0,0-4.905,0,1.1,1.1,0,0,1-2.2,0,4.657,4.657,0,0,1,9.315,0,3.827,3.827,0,0,1-2.717,3.668,1.645,1.645,0,0,0-1.168,1.578,1.1,1.1,0,0,1-2.2,0Z" transform="translate(797.794 1167.632)" fill="#fff"/>
    <rect id="Rectangle_139" data-name="Rectangle 139" width="48" height="45" transform="translate(797.794 1166.632)" fill="none" opacity="0"/>
  </g>
</svg>
