<svg xmlns="http://www.w3.org/2000/svg" width="35.335" height="43" viewBox="0 0 35.335 43"><g transform="translate(-525.087 -1145.947)" opacity="0.8"><g transform="translate(526.873 1147.924)"><path d="M24.71,39.047H4.561A4.574,4.574,0,0,1,0,34.47V7.627A4.574,4.574,0,0,1,4.561,3.05h5.81a4.557,4.557,0,0,1,8.6,0h5.734a4.574,4.574,0,0,1,4.56,4.577V17.858a8.6,8.6,0,0,0-3.04-2.331v-7.9A1.525,1.525,0,0,0,24.706,6.1H22.273v6.025H7.07V6.1H4.561a1.525,1.525,0,0,0-1.52,1.526V34.47A1.525,1.525,0,0,0,4.561,36H24.708a1.526,1.526,0,0,0,1.517-1.526V31.614l3.036,3.046a4.574,4.574,0,0,1-4.552,4.386ZM10.111,6.1V9.077h9.122V6.1H16.192V4.576a1.521,1.521,0,1,0-3.041,0V6.1Z" fill="#fffcfc"/><g transform="translate(15.344 16.951)"><path d="M6.553,0A6.553,6.553,0,1,1,0,6.553,6.553,6.553,0,0,1,6.553,0Z" fill="none" stroke="#fffefe" stroke-width="3"/><line x1="4.471" y1="4.472" transform="translate(11.613 11.613)" fill="none" stroke="#fffefe" stroke-linecap="round" stroke-miterlimit="10" stroke-width="3"/></g></g><rect width="35" height="43" transform="translate(525.087 1145.947)" fill="none" opacity="0"/></g></svg>