<svg xmlns="http://www.w3.org/2000/svg" width="26" height="35" viewBox="0 0 26 35"><g transform="translate(-8)" opacity="0.8"><path d="M20.822,0H9.792A2.067,2.067,0,0,0,8,2.023V33.25A2.086,2.086,0,0,0,10.072,35H20.99a1.961,1.961,0,0,0,1.96-1.914V1.914A2.106,2.106,0,0,0,20.822,0Zm-.9,32.1H10.968V30.625h1.512a1.477,1.477,0,1,0,0-2.953H10.968V26.25h2.968a1.477,1.477,0,1,0,0-2.953H10.968V21.875h1.512a1.477,1.477,0,1,0,0-2.953H10.968V17.5h2.968a1.477,1.477,0,1,0,0-2.953H10.968V13.125h1.512a1.477,1.477,0,1,0,0-2.953H10.968V8.75h2.968a1.424,1.424,0,0,0,1.512-1.477A1.424,1.424,0,0,0,13.935,5.8H10.968V2.9h8.959Z" fill="#fffcfc"/><path d="M45.979,0H39.26A1.941,1.941,0,0,0,37.3,1.75v24.5c0,.273,0,.438.168.6l3.751,7.273A1.661,1.661,0,0,0,42.563,35a1.375,1.375,0,0,0,1.344-.875l3.751-7.273a.973.973,0,0,0,.112-.6V1.75A1.9,1.9,0,0,0,45.979,0ZM44.8,25.977l-2.24,4.375-2.24-4.375V8.75H44.8Zm0-20.125H40.324V2.9H44.8Z" transform="translate(-13.77)" fill="#fffcfc"/></g></svg>