<svg xmlns="http://www.w3.org/2000/svg" width="43" height="25" viewBox="0 0 43 25">
  <g id="code" transform="translate(0 -13.275)" opacity="1">
    <path id="Path_64" data-name="Path 64" d="M13.087,13.828a1.73,1.73,0,0,0-2.535,0L.822,23.672a2.946,2.946,0,0,0,0,4.085L10.483,37.6a2.028,2.028,0,0,0,1.3.536,2.182,2.182,0,0,0,1.3-.536,1.64,1.64,0,0,0,0-2.478L3.768,25.815l9.318-9.443A1.715,1.715,0,0,0,13.087,13.828Z" transform="translate(0 0)" fill="#2a2a2a"/>
    <path id="Path_65" data-name="Path 65" d="M56.7,23.674l-9.729-9.846a1.73,1.73,0,0,0-2.535,0,1.692,1.692,0,0,0,0,2.478l9.318,9.511L44.44,35.261a1.64,1.64,0,0,0,0,2.478,1.774,1.774,0,0,0,1.3.536,1.893,1.893,0,0,0,1.3-.536L56.7,27.893A2.869,2.869,0,0,0,56.7,23.674Z" transform="translate(-14.63 0)" fill="#2a2a2a"/>
    <path id="Path_66" data-name="Path 66" d="M33.719,14.35a2.017,2.017,0,0,0-2.4,1.071L23.853,35.765a1.94,1.94,0,0,0,1.1,2.342c.206,0,.343.2.548.2a1.742,1.742,0,0,0,1.644-1.271l7.674-20.545A1.638,1.638,0,0,0,33.719,14.35Z" transform="translate(-7.884 -0.307)" fill="#2a2a2a"/>
  </g>
</svg>
