<svg xmlns="http://www.w3.org/2000/svg" width="92" height="92" viewBox="0 0 92 92">
  <g id="Group_19" data-name="Group 19" transform="translate(-210 -1127)">
    <circle id="Ellipse_180" data-name="Ellipse 180" cx="45" cy="45" r="45" transform="translate(211 1128)" fill="#0750e4"/>
    <g id="Layer_1" data-name="Layer 1" transform="translate(239 1159)">
      <g id="arrow_back-2" data-name="arrow back-2">
        <path id="Path_52" data-name="Path 52" d="M31.6,24H1.4a1.437,1.437,0,0,1,0-2.873H31.6A1.437,1.437,0,0,1,31.6,24Z" transform="translate(0 -9.066)" fill="#fff"/>
        <path id="Path_53" data-name="Path 53" d="M34.305,27a1.428,1.428,0,0,1-1.017-2.439L44.435,13.5,33.288,2.438a1.424,1.424,0,0,1,0-2.022,1.444,1.444,0,0,1,2.034,0L47.463,12.487a1.434,1.434,0,0,1,0,2.022L35.322,26.58A1.435,1.435,0,0,1,34.305,27Z" transform="translate(-14.883 0.003)" fill="#fff"/>
      </g>
    </g>
    <rect id="Rectangle_317" data-name="Rectangle 317" width="92" height="92" transform="translate(210 1127)" fill="none" opacity="0"/>
  </g>
</svg>
