<svg id="Iconly_Light-outline_Arrow_-_Right" data-name="Iconly/Light-outline/Arrow - Right" xmlns="http://www.w3.org/2000/svg" width="52" height="52" viewBox="0 0 52 52">
  <g id="Arrow_-_Right" data-name="Arrow - Right" transform="translate(6.5 42.25) rotate(-90)">
    <path id="Arrow_-_Right-2" data-name="Arrow - Right" d="M15.758,38.933l-.01,0-.025-.007-.022-.007-.012,0-.03-.01h0a1.8,1.8,0,0,1-.682-.422h0L.524,24.178A1.752,1.752,0,0,1,.53,21.672,1.818,1.818,0,0,1,2.872,21.5l.2.172L14.451,32.933V1.773a1.8,1.8,0,0,1,3.582-.24l.016.24V32.935L29.425,21.676a1.819,1.819,0,0,1,2.545,0,1.754,1.754,0,0,1,.179,2.307l-.174.2-14.45,14.3A1.809,1.809,0,0,1,16.252,39,1.828,1.828,0,0,1,15.758,38.933Z" transform="translate(0 0)" fill="#2a2a2a"/>
  </g>
</svg>
