<svg xmlns="http://www.w3.org/2000/svg" width="38.385" height="38.382" viewBox="0 0 38.385 38.382">
  <g id="Layer_2" data-name="Layer 2" transform="translate(0.005 -0.012)" opacity="0.8">
    <g id="Layer_1" data-name="Layer 1" transform="translate(-0.005 0.012)">
      <g id="rocket">
        <path id="Path_5" data-name="Path 5" d="M16.98,55.949a1.633,1.633,0,0,1-1.152-2.778l2.447-2.427a1.627,1.627,0,1,1,2.3,2.3l-2.447,2.446A1.627,1.627,0,0,1,16.98,55.949Z" transform="translate(-5.363 -17.567)" fill="#2a2a2a"/>
        <path id="Path_6" data-name="Path 6" d="M1.625,40.654A1.627,1.627,0,0,1,.473,37.876l2.453-2.447a1.627,1.627,0,0,1,2.277,2.3L2.777,40.179a1.646,1.646,0,0,1-1.152.475Z" transform="translate(0.005 -12.26)" fill="#2a2a2a"/>
        <path id="Path_7" data-name="Path 7" d="M4.505,51.383a1.646,1.646,0,0,1-1.152-.475,1.627,1.627,0,0,1,0-2.3l5.57-5.57a1.627,1.627,0,1,1,2.3,2.3l-5.563,5.57a1.646,1.646,0,0,1-1.152.475Z" transform="translate(-1.002 -14.875)" fill="#2a2a2a"/>
        <path id="Path_8" data-name="Path 8" d="M36.468,49.305a1.484,1.484,0,0,1-.41-.059A1.627,1.627,0,0,1,34.9,48.115l-2.381-8.6a1.627,1.627,0,1,1,3.136-.865l1.64,5.908,3.7-3.7-1.3-6.721a1.627,1.627,0,0,1,3.188-.651l1.5,7.567a1.633,1.633,0,0,1-.442,1.471L37.646,48.8A1.607,1.607,0,0,1,36.468,49.305Z" transform="translate(-11.336 -11.249)" fill="#2a2a2a"/>
        <path id="Path_9" data-name="Path 9" d="M22.439,31.067a1.627,1.627,0,0,1-1.152-.481l-9.545-9.552a1.607,1.607,0,0,1-.423-1.575C14.832,6.576,28.009-1.948,40.625.4a1.62,1.62,0,0,1,1.3,1.3c2.349,12.617-6.181,25.786-19.058,29.306A1.627,1.627,0,0,1,22.439,31.067ZM14.715,19.42l8.192,8.185c10.411-3.312,17.334-13.82,16-24.185C28.529,2.086,18.027,9.016,14.715,19.42Z" transform="translate(-3.931 -0.012)" fill="#2a2a2a"/>
        <path id="Path_10" data-name="Path 10" d="M10.72,20.135a1.672,1.672,0,0,1-.436-.059l-8.6-2.388a1.627,1.627,0,0,1-.716-2.72L7.265,8.683a1.627,1.627,0,0,1,1.464-.449L16.3,9.73a1.63,1.63,0,1,1-.651,3.195l-6.715-1.3L5.248,15.3l5.908,1.64a1.627,1.627,0,0,1-.436,3.195Z" transform="translate(-0.17 -2.873)" fill="#2a2a2a"/>
        <path id="Path_11" data-name="Path 11" d="M35.782,22.827A5.017,5.017,0,0,1,32.2,21.343a5.075,5.075,0,1,1,7.157,0h0a5.036,5.036,0,0,1-3.572,1.484Zm2.44-2.635Zm-2.44-4.255a1.815,1.815,0,0,0-1.3,3.1,1.867,1.867,0,0,0,2.6,0,1.815,1.815,0,0,0-1.3-3.1Z" transform="translate(-10.721 -4.433)" fill="#2a2a2a"/>
      </g>
    </g>
  </g>
</svg>
