<svg id="mc_default" xmlns="http://www.w3.org/2000/svg" width="89" height="87" viewBox="0 0 89 87">
  <g id="g55015">
    <g id="g47059" transform="translate(0 57.951)">
      <path id="path47061" d="M0,0,3.215,29.049H85.788L89,0Z" fill="#fff"/>
    </g>
    <g id="g47071" transform="translate(5.487 0)" opacity="0.5">
      <path id="path47073" d="M-2196.031-2107.542s-4.175-60.195-13.165-60.195c-10.594,0-11.077,56.644-11.077,56.644l-9.874.082s-.482-56.644-11.077-56.644c-8.991,0-13.165,60.194-13.165,60.194l-9.672-.042s6.5-65.542,23.4-65.624c11.119-.054,15.411,28.228,15.411,28.228s6.465-28.282,14.814-28.282c5.3,0,9.477,4.578,12.888,11.585,9.018,18.515,11.191,54.093,11.191,54.093Z" transform="translate(2264.061 2173.181)" fill="#2a2a2a"/>
    </g>
    <g id="g47075" transform="translate(39.377 60.645)">
      <path id="path47077" d="M-159.342,0l-4.963,1.251,9.925-.082Z" transform="translate(164.305)" fill="#fff"/>
    </g>
    <g id="g47079" transform="translate(73.509 64.18)">
      <path id="path47081" d="M-145.042,0l-4.517,1.209h9.683Z" transform="translate(149.56)" fill="#fff"/>
    </g>
    <g id="g47083" transform="translate(5.489 64.18)">
      <path id="path47085" d="M-145.042,0l-4.517,1.209,9.722.042Z" transform="translate(149.56)" fill="#fff"/>
    </g>
    <g id="g47087" transform="translate(44.253 0)">
      <path id="path47089" d="M-504-90.664c-13.234,0-15.655,58.095-15.655,58.095l-.042-32.636s6.5-28.282,14.891-28.282Z" transform="translate(519.698 93.488)" fill="#fff"/>
    </g>
    <g id="g47091" transform="translate(28.247 2.985)">
      <path id="path47093" d="M0,0C12.91,0,16.136,57.934,16.136,57.934l-4.96,1.251S10.692,2.542.039,2.542Z" fill="#fff"/>
    </g>
    <g id="g47095" transform="translate(5.489 0.054)">
      <path id="path47097" d="M-145.042-2068.242s5.326-61.485,18.4-61.485l.6-2.93c-16.988.082-23.517,65.624-23.517,65.624Z" transform="translate(149.56 2132.657)" fill="#fff"/>
    </g>
    <g id="g47099" transform="translate(59.79 2.823)">
      <path id="path47101" d="M-585.52-1979.329s-4.841-61.646-18.236-61.646l.445,2.624c9.035,0,13.231,60.192,13.231,60.192Z" transform="translate(603.756 2040.975)" fill="#fff"/>
    </g>
    <g id="g47145" transform="translate(5.122 68.5)" opacity="0.5">
      <path id="path47147" d="M-2554.985-56.519l-.313-1.424v1.424h-.359v-1.76h.525l.329,1.351.326-1.351h.527v1.76h-.362v-1.424l-.313,1.424Zm-.863-1.759v.3h-.512v1.457h-.359v-1.457h-.531v-.3Zm-54.076,3.861h1.118c2.544,0,2.767,1.727,2.767,2.348a2.243,2.243,0,0,1-2.511,2.46h-1.375Zm-3.066,6.735h4.606c3.608,0,5.287-1.7,5.287-4.366,0-2.194-1.218-4.339-4.664-4.339h-5.23Zm49.042-8.763h2.234l-.742,2.539h-1.492Zm-32.94,4.931c0,.866-.169,2.036-1.435,2.036s-1.435-1.169-1.435-2.036.169-2.021,1.435-2.021,1.435,1.154,1.435,2.021m2.734,0a3.8,3.8,0,0,0-4.178-3.978,3.806,3.806,0,0,0-4.181,3.978,3.817,3.817,0,0,0,4.181,4,3.816,3.816,0,0,0,4.178-4m.821,3.871h2.659v-3.836c0-1.163.727-1.4,1.2-1.4.808,0,1.161.591,1.161,1.433v3.808l2.689,0V-52.63a2.5,2.5,0,0,0-2.665-2.466,2.913,2.913,0,0,0-2.5,1.106v-.924h-2.548Zm15.947-4.675c-.057-.87-.006-2.939-3.461-2.939-1.715,0-3.6.442-3.6,2.484h2.581a.9.9,0,0,1,.934-.857.848.848,0,0,1,.9.779c.009.242-.4.47-.787.464-1.564-.027-3.979.194-3.979,2.539a2.249,2.249,0,0,0,2.481,2.321,3.033,3.033,0,0,0,2.186-.83l.135.055a1.422,1.422,0,0,0,.027.594h2.635a4.665,4.665,0,0,1-.051-1.627Zm-2.638,1.863a1.42,1.42,0,0,1-1.266,1.042c-.5,0-.766-.294-.766-.63,0-.491.111-.827.66-.939a8.357,8.357,0,0,1,1.372-.145Zm3.816-5.989h2.758v8.8h-2.758Zm8.914,5.136c0,.867-.241,1.8-1.314,1.8s-1.311-.936-1.311-1.8c0-.851.241-1.788,1.311-1.788s1.314.936,1.314,1.788m2.581-5.135h-2.656v2.087h-.03a2.458,2.458,0,0,0-2.086-.845c-2.424,0-3.183,2.209-3.183,3.917,0,2.124.935,3.805,3.15,3.8a2.224,2.224,0,0,0,2.116-.982h.027v.8h2.662Zm9.064,3.587c-.054-2.29-1.911-2.475-3.376-2.512-1.152-.027-3.223.418-3.223,2.342,0,1.306.8,2.012,2.773,2.393,1.206.233,1.312.485,1.329.812a.756.756,0,0,1-.772.715,1,1,0,0,1-.693-.218,1.333,1.333,0,0,1-.323-.809h-2.6c.039,1.966,1.233,2.684,3.521,2.687,1.649,0,3.587-.536,3.587-2.654a2.035,2.035,0,0,0-1.785-1.984,18.285,18.285,0,0,1-2.167-.579.674.674,0,0,1-.38-.5c0-.5.434-.579.784-.588a.746.746,0,0,1,.576.133,1.186,1.186,0,0,1,.3.757Zm-78.5,5.142h2.785s.646-4.133.669-4.481l1.535,4.481h2.39l1.565-4.481.491,4.481h3l-1.507-8.75h-3.394s-1.206,3.887-1.266,4.269h-.084l-1.266-4.269h-3.433Zm20.118-4.692c-.166-2-1.785-2.942-3.678-2.942a3.756,3.756,0,0,0-3.916,3.824c-.009,2.869,1.742,4,3.916,4,1.95,0,3.5-.609,3.762-3.154h-2.635c-.054.576-.277,1.215-1.073,1.215-1.218,0-1.212-1.176-1.212-2.057s.03-1.963,1.088-1.963a1.418,1.418,0,0,1,.835.273,1.313,1.313,0,0,1,.292.809Z" transform="translate(2634.149 58.279)" fill="#2a2a2a"/>
    </g>
  </g>
</svg>
