<svg xmlns="http://www.w3.org/2000/svg" width="85" height="68" viewBox="0 0 85 68">
  <path id="Path_69" data-name="Path 69" d="M41.054.082c-2.208.881-4.415,1.983-6.623,2.864A14.515,14.515,0,0,0,29.353,6.69a18.159,18.159,0,0,0-3.091,7.049A2.389,2.389,0,0,0,28.47,16.6h9.493a10.455,10.455,0,0,0-2.208-2.2V47a10.455,10.455,0,0,0,2.208-2.2H5.068L7.275,47V31.8c0-5.948-.221-12.336.442-18.284C8.6,6.029,11.47-.8,16.99-6.087c4.195-3.745,9.272-5.948,14.571-8.151a12.676,12.676,0,0,1-3.091-.881C32.444-8.95,36.418-3,40.171,3.166c1.545,2.2,5.519,0,3.974-2.2C40.171-5.205,36.2-11.153,32.223-17.321c-.662-1.1-1.766-1.322-3.091-.661a88.334,88.334,0,0,0-9.272,4.406A32.973,32.973,0,0,0,8.159-1.9c-4.415,7.49-5.3,16.3-5.3,24.892V47a2.21,2.21,0,0,0,2.208,2.2h32.9A2.084,2.084,0,0,0,40.171,47V14.4a2.084,2.084,0,0,0-2.208-2.2H28.47a23.343,23.343,0,0,0,2.208,2.643,9.171,9.171,0,0,1,1.987-5.287A10.968,10.968,0,0,1,36.859,6.69c2.208-.881,4.195-1.762,6.4-2.864A2.164,2.164,0,0,0,44.145.963,2.447,2.447,0,0,0,41.054.082ZM84.546.522C82.339,1.4,80.131,2.5,77.923,3.386a14.515,14.515,0,0,0-5.078,3.745,15.4,15.4,0,0,0-3.091,7.049,2.389,2.389,0,0,0,2.208,2.864h9.493a20.794,20.794,0,0,0-2.208-2.2v32.6a20.8,20.8,0,0,0,2.208-2.2H48.56l2.208,2.2v-15.2c0-5.948-.221-12.336.442-18.284.883-7.49,3.753-14.319,9.272-19.606,3.974-3.745,9.272-5.948,14.35-8.151a14.3,14.3,0,0,1-2.87-.881c3.974,6.168,7.727,12.116,11.7,18.284,1.545,2.423,5.519.22,3.753-2.2-3.753-6.168-7.727-12.116-11.7-18.284a2.174,2.174,0,0,0-3.091-.661,88.336,88.336,0,0,0-9.273,4.406A33.6,33.6,0,0,0,51.43-1.46c-4.415,7.71-5.078,16.522-5.078,24.892V47.443a2.21,2.21,0,0,0,2.208,2.2h32.9a2.21,2.21,0,0,0,2.208-2.2v-32.6a2.21,2.21,0,0,0-2.208-2.2H71.962l1.987,2.643c.442-1.983.883-3.745,2.208-5.067a9.478,9.478,0,0,1,4.195-3.084c2.208-.881,4.195-1.762,6.4-2.864A1.924,1.924,0,0,0,87.416,1.4,2.174,2.174,0,0,0,84.546.522Z" transform="translate(-2.86 18.354)" fill="#0750e4"/>
</svg>
