<svg xmlns="http://www.w3.org/2000/svg" width="20" height="15.998" viewBox="0 0 20 15.998">
  <g id="Page-1" transform="translate(0 -0.002)">
    <g id="Dribbble-Light-Preview" transform="translate(-60 -7521)">
      <g id="icons" transform="translate(56 160)">
        <path id="twitter-_154_" data-name="twitter-[#154]" d="M10.29,7377a11.5,11.5,0,0,0,11.675-11.49c0-.18,0-.35-.012-.53A8.259,8.259,0,0,0,24,7362.89a8.342,8.342,0,0,1-2.356.64,4.084,4.084,0,0,0,1.8-2.24,8.125,8.125,0,0,1-2.606.98,4.159,4.159,0,0,0-5.806-.17,4,4,0,0,0-1.187,3.86,11.754,11.754,0,0,1-8.457-4.22,4,4,0,0,0,1.271,5.39,4.172,4.172,0,0,1-1.863-.5v.05a4.068,4.068,0,0,0,3.292,3.96,4.148,4.148,0,0,1-1.852.06,4.1,4.1,0,0,0,3.833,2.81,8.228,8.228,0,0,1-5.1,1.73c-.326,0-.652-.02-.977-.05a11.824,11.824,0,0,0,6.29,1.81" fill="#2a2a2a" fill-rule="evenodd"/>
      </g>
    </g>
  </g>
</svg>
